PathFileType	4	(X/Y/Z)	69_1_5_p0_0-176_filt_butterworth.trc
DataRate	CameraRate	NumFrames	NumMarkers	Units	OrigDataRate	OrigDataStartFrame	OrigNumFrames
60.0	60.0	7	27	m	60.0	88	176
Frame#	Time	RHip			RKnee			RAnkle			RBigToe			RSmallToe			RHeel			LHip			LKnee			LAnkle			LBigToe			LSmallToe			LHeel			Neck			Head			Nose			RShoulder			RElbow			RWrist			RThumb			RIndex			RPinky			LShoulder			LElbow			LWrist			LThumb			LIndex			LPinky			
		X1	Y1	Z1	X2	Y2	Z2	X3	Y3	Z3	X4	Y4	Z4	X5	Y5	Z5	X6	Y6	Z6	X7	Y7	Z7	X8	Y8	Z8	X9	Y9	Z9	X10	Y10	Z10	X11	Y11	Z11	X12	Y12	Z12	X13	Y13	Z13	X14	Y14	Z14	X15	Y15	Z15	X16	Y16	Z16	X17	Y17	Z17	X18	Y18	Z18	X19	Y19	Z19	X20	Y20	Z20	X21	Y21	Z21	X22	Y22	Z22	X23	Y23	Z23	X24	Y24	Z24	X25	Y25	Z25	X26	Y26	Z26	X27	Y27	Z27	
88	1.4666666666666666	0.27504639898791233	0.528353871760813	0.49266748666242755	0.24767561450299036	0.5348377646995599	0.9112797095789669	0.22614179946818272	0.57035727617392	1.3124008189928118	0.26076402956366923	0.4428304378585458	1.3395106128170675	0.31279147183630235	0.4816075155393974	1.33187288624044	0.1806905892036899	0.6703786542605448	1.3865031634815106	0.08852324786777582	0.47913318168819774	0.5023981535507658	0.043008156014747986	0.5229394365909494	0.9230493696122769	0.030453417344611187	0.5600239392765597	1.3173115970080858	0.11050749364082205	0.3767742937885516	1.306714480016988	0.03843615231095501	0.4258607293900316	1.3267718247610487	0.03679151238099227	0.5874347839195185	1.371391040025219	0.21851525704542546	0.5139572618585502	-0.012595774802258212	0.2589588449045078	0.47391431537561546	-0.25622182731515614	0.26606838057915755	0.4169468440497185	-0.13646592135643315	0.3564337998742526	0.5554198508228743	0.07519558211138401	0.3586055712779199	0.5213812691357036	0.3170312975335252	0.311240579254238	0.3628573788815691	0.471058146792385	0.2715308110187882	0.27320762901150214	0.5307979813150706	0.23737144245489117	0.3201940319689017	0.5823837826515433	0.2303353402472148	0.3596622462754972	0.5947308596283304	0.06837291132362892	0.4736112742282452	0.04798631338597436	0.062410400615622266	0.4084812682870621	0.2835694696059772	0.1674479242534767	0.32204383020360405	0.4584422403321525	0.24995605154960354	0.30469319671596673	0.5209955622157512	0.2319083668621273	0.3106236318048436	0.5602411788084244	0.22130470463710294	0.29305616004590573	0.5706750621798041
89	1.4833333333333334	0.2740497609002538	0.5276562265873161	0.49271181564790245	0.24716415042974296	0.5352970140894984	0.9122645530258386	0.22613033371861443	0.5704109370310626	1.3124745385263459	0.2581380928816873	0.44457418314384645	1.3411243640550112	0.31174376604081405	0.4827337991424146	1.3327906517206851	0.18066962496707317	0.6706976062826239	1.386840671091454	0.08592058217194695	0.48193141864703776	0.5049520089853288	0.042597503134845255	0.5232814337737336	0.9226735134789208	0.030434775202021917	0.5606712056127408	1.3189366860724696	0.11048217212932454	0.3768043716053021	1.3067009973388077	0.03846684692288575	0.42622016221721665	1.3266198655157824	0.03639365268892948	0.5879666668152611	1.3705630236639967	0.2176940531553655	0.5138193489017024	-0.012538967934757747	0.2590902236490634	0.4738074882903671	-0.25623423400863543	0.2660583616778762	0.41694893254297977	-0.13647554186421582	0.35648484992083435	0.5553648221302916	0.07520539271916375	0.3582621753476507	0.5202663518560442	0.3170012989300505	0.31127605260748775	0.36282753380753563	0.471054388367822	0.27173598305427443	0.2732888691762528	0.5293646064008347	0.23740422453687027	0.32021563872629366	0.5823448576765821	0.23028240945993597	0.3597559525002161	0.5947050612753739	0.0684749323634944	0.47227213899365633	0.04868660481502734	0.06239824190614128	0.4085046514567171	0.2836542788510516	0.16740876766735605	0.32203570687882604	0.4584603955449935	0.2500684701764374	0.3027176105183686	0.520407833702459	0.23209632969376096	0.3107488658003317	0.5601785734586526	0.22144038224540835	0.2930159928795097	0.5706765057552837
90	1.5	0.2727650272119817	0.5267221381966611	0.492677034304064	0.24662682886376888	0.5354204265316512	0.9129307365612164	0.22614357312045288	0.5704712313730331	1.3125533800742528	0.2553546453458634	0.4462959288571454	1.3424679044821908	0.3116334301051733	0.4827199971299964	1.3329071574304043	0.18067576952920675	0.671412366241182	1.38820836970556	0.08249885737362958	0.4857341763996824	0.5075794225719851	0.042178235846915456	0.5234407239065241	0.9221058453701926	0.030455652571000746	0.5613932428921099	1.3212272801948932	0.11047753263428114	0.3767318661233728	1.306708556428441	0.03862212034236725	0.4262262366665679	1.3260628711505071	0.03617823899032928	0.5881941029854817	1.3692910240934595	0.21776243888557634	0.513799687995449	-0.01258486127993827	0.2593141112017565	0.4736294488531171	-0.2562673472320068	0.26612424334581286	0.4158771256305198	-0.13656875720350029	0.35657363954011534	0.5540479739566878	0.07504937926104661	0.3573423912930587	0.5195831156686723	0.31696274188981843	0.3113110680630489	0.362806400328105	0.47107216493931275	0.27191096202385856	0.2734026036143665	0.5284242540824486	0.23740155641068192	0.3202220118774251	0.5823666589308171	0.23023394331807145	0.3598774323575988	0.5947025340618601	0.06888010632674976	0.46905385400203387	0.049099923686327915	0.062382313290341634	0.40854618673104187	0.2836971138606281	0.167373598009402	0.3220211780041906	0.45845979857553487	0.24987854896478875	0.30243609463447957	0.5203289032005992	0.23220373840000127	0.31090482996255764	0.5601749667865709	0.22139572902127022	0.2927600292451441	0.570658299371943
91	1.5166666666666666	0.2717937164236227	0.5260297032789938	0.4926963299268401	0.24637533907999265	0.5354020062114346	0.9131495362459479	0.22616779759979372	0.5704972502864156	1.3125981125740012	0.2535063614577822	0.4475575241453316	1.343192936844531	0.31189265902713376	0.48259029306695916	1.332757683567717	0.1806823779888489	0.6723074766827883	1.390313060152544	0.07986405866022245	0.4886787614375742	0.5095408391388042	0.04188591271586588	0.5234351739769397	0.9218296443853005	0.030479014589077202	0.561922414371623	1.3229556021305746	0.11050279179277347	0.3765808857359859	1.306762759821341	0.03887074413367043	0.42484392306997554	1.3252972423217904	0.03614384731121292	0.5881765432014949	1.3683100570140034	0.2179594690789068	0.5137445572573335	-0.012623934522621266	0.25937845111827745	0.47333181074414366	-0.2563070704015582	0.26624724967598495	0.4130062667142621	-0.1367748677640332	0.35660716239052875	0.5506918486057025	0.07462349349744321	0.3561492878025953	0.5189655145574297	0.3172873987891235	0.3113349879453436	0.3627571384310012	0.471087638006582	0.27198328059066945	0.273497137627939	0.5282483931514088	0.2373756161844542	0.3201902021169534	0.5824530113399725	0.23019736637022564	0.36000896905591656	0.594656841038002	0.0695012029595398	0.46494482114090585	0.048921281361984405	0.06237595274690966	0.40858267414014493	0.2836261848496863	0.16735160615643768	0.32199953331247116	0.4584089508807758	0.24981049816630757	0.3025948449421254	0.5203864613933363	0.23225875256409947	0.3107927902967108	0.5601227516717551	0.2212118575578747	0.2923830622756495	0.5706212376416219
92	1.5333333333333334	0.2713537585629836	0.5259056016414019	0.49297714307992063	0.24668758030431504	0.5355948727313083	0.9132007194102434	0.2261916608816292	0.5704649644138224	1.3125913721850104	0.252821771465355	0.4472986764775438	1.342836624234503	0.31218348992601513	0.48275339535982104	1.3326149641919107	0.1807119820859151	0.6730033992031347	1.3920061912843975	0.07875647486972409	0.48985162595026255	0.5105294569611004	0.04176162840387101	0.5233686018305346	0.9221851221604738	0.030485929247559516	0.5621407649188411	1.3235965336979472	0.11054772817403216	0.3764145340411053	1.3068265659629157	0.039028238887762	0.4213116022032091	1.324927758861384	0.0361662578166555	0.5881122736049134	1.3678862600885369	0.21771987741014212	0.513476315608059	-0.01262391107091883	0.2586626488773376	0.4729605215630035	-0.2563305591561509	0.26622406761832146	0.4089314768195414	-0.13703315851963757	0.3563299936012846	0.5460669882115472	0.07401204205908636	0.35526415008697276	0.5186545909057502	0.3182958028661338	0.3113435711469557	0.36267781196333976	0.4710941505577023	0.27197695195199123	0.2735005535903517	0.5290026871797204	0.23735106718965174	0.32011435519936876	0.5825814005478815	0.23018731232449297	0.3601369910915308	0.5945389836330577	0.070015338112234	0.461925438550821	0.04857891827681067	0.06238184455033558	0.40861202191434554	0.28346491097635323	0.16732622847521028	0.32199937340796103	0.45832191119943266	0.24994195336717845	0.30257180945671147	0.5206314969908675	0.23229124758539318	0.3096619332480036	0.5597791851645997	0.22102824101921323	0.2920792459343936	0.5705975137004984
93	1.55	0.271213377368681	0.5262871945408091	0.4936063487701695	0.24759883630585733	0.5362009212424867	0.913299665977942	0.22620746956003923	0.5703892707878703	1.3125524425156136	0.2528252898381489	0.4441192205139557	1.3408902145445925	0.31228967156738313	0.48273935891539604	1.3324541160075682	0.18086459187791903	0.6733666352558804	1.3926190810448746	0.07870653965942925	0.48987194920889376	0.5109621856961944	0.04176544042117557	0.5234185774230773	0.9228480679581561	0.030494190940446968	0.5621245724161327	1.3236254573446473	0.11059255784018238	0.3762894261566817	1.3066564418631486	0.03908785856595622	0.41658862664284874	1.3248905101023507	0.03608293968564435	0.587960832904449	1.3678823886351414	0.21681711890327682	0.5129076232939181	-0.012598476499108809	0.2566706124760247	0.47267038548339046	-0.2564015216802322	0.2659119402474144	0.4053088224417491	-0.13723580515689132	0.3555398178933364	0.5421049217119518	0.07347979906583572	0.35492906305891175	0.518769349450633	0.3197263033926788	0.31134015973270524	0.36264062422252097	0.47110918690049064	0.27194225539042766	0.2733812618021239	0.5307735020524386	0.23733550880829152	0.3200260856390339	0.5827120532474126	0.23019339212601447	0.36023826273037274	0.5945003447762855	0.07016816702874343	0.460817762538407	0.048744982198171735	0.06237966866870583	0.40869451731308704	0.28349838357232504	0.1672735451777899	0.32208256908100663	0.4583518435976784	0.25010817554647485	0.3026277036312558	0.5213904891196863	0.2323360581503799	0.3068340667644599	0.5589556872713426	0.2209379483339806	0.2922561242086687	0.5707190831320144
94	1.5666666666666669	0.27121750856224963	0.5268496492677363	0.49435444326089995	0.2487017115513408	0.5370409216919122	0.9134917248289431	0.22620223233815517	0.5703175665166073	1.3125172059434946	0.2533668985583101	0.4375091969197557	1.3372126693611066	0.3119257671719678	0.4812243009245681	1.332031327329331	0.18118734933081665	0.6734245906426386	1.392532804044212	0.07903283437040015	0.48965252237635887	0.5110467368980617	0.04187917761924743	0.5238466451919178	0.9233980467962306	0.0305686597298196	0.561897257206732	1.3238219570748049	0.11065076772056269	0.3762193350347457	1.305811064266475	0.03927000061131348	0.4128073339214331	1.3244111847156168	0.03581949493678837	0.5874154526211268	1.3682133672224317	0.2155644224984808	0.5122140192327692	-0.012579928519425715	0.25397696272402687	0.47254969858894713	-0.25676385910902383	0.265589479215843	0.40307264192941195	-0.1373533883876257	0.35446081647374555	0.5399166504677326	0.0732873866859478	0.3549339001628767	0.5190398683885616	0.3208912915984809	0.31133087885433147	0.3627517577254233	0.4711592552207916	0.2719130487482445	0.27319559275831146	0.5329892218791767	0.2373224661881365	0.319960383903536	0.5828190797137673	0.23020268930477272	0.36031532048446846	0.5949236152661946	0.06985063655670401	0.4606754348717438	0.04984110802854803	0.06236268218641494	0.4089199022668158	0.2843265326813483	0.16720462211369003	0.3223198571050967	0.45882307398375266	0.2499086061098869	0.3037027833744195	0.5230427090235077	0.23242814810755574	0.302885004087638	0.5578768266494796	0.22090999996989205	0.2936695879897733	0.571227411625118
